<svg width="72" height="72" viewBox="0 0 72 72" fill="black" stroke="blue" xmlns="http://www.w3.org/2000/svg">
<path d="M37.5133 46.0726L37.774 26.8895H34.2293L34.4899 46.0726H37.5133Z" />
<path d="M34.3466 53.0968C34.807 53.5573 35.3587 53.7875 36.0016 53.7875C36.436 53.7875 36.827 53.6832 37.1745 53.4747C37.5307 53.2575 37.8131 52.9708 38.0216 52.6146C38.2388 52.2584 38.3474 51.8675 38.3474 51.4417C38.3474 50.7988 38.1172 50.2471 37.6567 49.7867C37.1962 49.3262 36.6445 49.096 36.0016 49.096C35.3587 49.096 34.807 49.3262 34.3466 49.7867C33.8861 50.2471 33.6559 50.7988 33.6559 51.4417C33.6559 52.0847 33.8861 52.6363 34.3466 53.0968Z" />
<path d="M37.3242 10.7645C37.0511 10.2914 36.5463 10 36 10C35.4537 10 34.9489 10.2914 34.6758 10.7645L6.20486 60.0776C5.93171 60.5507 5.93171 61.1336 6.20486 61.6067C6.478 62.0798 6.9828 62.3712 7.52909 62.3712H64.4709C65.0172 62.3712 65.522 62.0798 65.7951 61.6067C66.0683 61.1336 66.0683 60.5507 65.7951 60.0776L37.3242 10.7645ZM36 14.5873L61.8225 59.3131H10.1775L36 14.5873Z"/>
</svg>
